<svg 
 xmlns="http://www.w3.org/2000/svg"
 xmlns:xlink="http://www.w3.org/1999/xlink"
 width="25px" height="21px">
<path fill-rule="evenodd"  fill="rgb(255, 255, 255)"
 d="M24.107,15.411 C24.107,15.411 0.000,21.000 0.000,21.000 C0.000,21.000 16.218,13.912 16.218,13.912 C17.020,13.538 17.050,12.873 16.286,12.426 C16.286,12.426 7.513,4.304 7.513,4.304 C6.749,3.858 6.810,3.271 7.650,2.995 C7.650,2.995 21.388,-0.000 21.388,-0.000 C21.388,-0.000 12.775,4.357 12.775,4.357 C11.980,4.746 11.982,5.373 12.779,5.757 C12.779,5.757 24.203,14.276 24.203,14.276 C25.000,14.661 24.957,15.169 24.107,15.411 Z"/>
</svg>